<?xml version="1.0" encoding="UTF-8" standalone="no"?>
<!-- Created with Inkscape (http://www.inkscape.org/) -->

<svg
   xmlns:dc="http://purl.org/dc/elements/1.1/"
   xmlns:cc="http://creativecommons.org/ns#"
   xmlns:rdf="http://www.w3.org/1999/02/22-rdf-syntax-ns#"
   xmlns:svg="http://www.w3.org/2000/svg"
   xmlns="http://www.w3.org/2000/svg"
   xmlns:xlink="http://www.w3.org/1999/xlink"
   xmlns:sodipodi="http://sodipodi.sourceforge.net/DTD/sodipodi-0.dtd"
   xmlns:inkscape="http://www.inkscape.org/namespaces/inkscape"
   width="400"
   height="123"
   viewBox="0 0 105.83333 32.543751"
   version="1.1"
   id="svg7918"
   inkscape:version="0.92.3 (unknown)"
   sodipodi:docname="logo.svg">
  <defs
     id="defs7912">
    <linearGradient
       inkscape:collect="always"
       xlink:href="#linearGradient7490"
       id="linearGradient7737"
       gradientUnits="userSpaceOnUse"
       gradientTransform="matrix(1.1113633,0,0,1.1113633,-480.82781,-126.59982)"
       x1="82.0765"
       y1="190.03165"
       x2="163.57761"
       y2="190.03165" />
    <linearGradient
       inkscape:collect="always"
       id="linearGradient7490">
      <stop
         style="stop-color:#008e23;stop-opacity:0.94117647"
         offset="0"
         id="stop7486" />
      <stop
         style="stop-color:#00af00;stop-opacity:1"
         offset="1"
         id="stop7488" />
    </linearGradient>
    <linearGradient
       inkscape:collect="always"
       xlink:href="#linearGradient7490"
       id="linearGradient8029"
       gradientUnits="userSpaceOnUse"
       gradientTransform="matrix(1.1113633,0,0,1.1113633,-480.82781,-126.59982)"
       x1="82.0765"
       y1="190.03165"
       x2="163.57761"
       y2="190.03165" />
    <linearGradient
       inkscape:collect="always"
       xlink:href="#linearGradient7490"
       id="linearGradient8031"
       gradientUnits="userSpaceOnUse"
       gradientTransform="matrix(1.1113633,0,0,1.1113633,-480.82781,-126.59982)"
       x1="82.0765"
       y1="190.03165"
       x2="163.57761"
       y2="190.03165" />
    <linearGradient
       inkscape:collect="always"
       xlink:href="#linearGradient7490"
       id="linearGradient8033"
       gradientUnits="userSpaceOnUse"
       gradientTransform="matrix(1.1113633,0,0,1.1113633,-480.82781,-126.59982)"
       x1="82.0765"
       y1="190.03165"
       x2="163.57761"
       y2="190.03165" />
    <linearGradient
       inkscape:collect="always"
       xlink:href="#linearGradient7490"
       id="linearGradient8035"
       gradientUnits="userSpaceOnUse"
       gradientTransform="matrix(1.1113633,0,0,1.1113633,-480.82781,-126.59982)"
       x1="82.0765"
       y1="190.03165"
       x2="163.57761"
       y2="190.03165" />
    <linearGradient
       inkscape:collect="always"
       xlink:href="#linearGradient7490"
       id="linearGradient8037"
       gradientUnits="userSpaceOnUse"
       gradientTransform="matrix(1.1113633,0,0,1.1113633,-480.82781,-126.59982)"
       x1="82.0765"
       y1="190.03165"
       x2="163.57761"
       y2="190.03165" />
  </defs>
  <sodipodi:namedview
     id="base"
     pagecolor="#ffffff"
     bordercolor="#666666"
     borderopacity="1.0"
     inkscape:pageopacity="0.0"
     inkscape:pageshadow="2"
     inkscape:zoom="0.98994949"
     inkscape:cx="-122.91873"
     inkscape:cy="-35.906257"
     inkscape:document-units="px"
     inkscape:current-layer="layer1"
     showgrid="false"
     units="px"
     inkscape:window-width="1920"
     inkscape:window-height="974"
     inkscape:window-x="0"
     inkscape:window-y="27"
     inkscape:window-maximized="1" />
  <metadata
     id="metadata7915">
    <rdf:RDF>
      <cc:Work
         rdf:about="">
        <dc:format>image/svg+xml</dc:format>
        <dc:type
           rdf:resource="http://purl.org/dc/dcmitype/StillImage" />
        <dc:title></dc:title>
      </cc:Work>
    </rdf:RDF>
  </metadata>
  <g
     inkscape:label="Camada 1"
     inkscape:groupmode="layer"
     id="layer1"
     transform="translate(0,-264.45623)">
    <g
       aria-label="Stoky"
       transform="matrix(0.82635886,0,0,0.82635886,352.94248,208.89561)"
       style="font-style:normal;font-variant:normal;font-weight:normal;font-stretch:normal;font-size:35.28578186px;line-height:1.25;font-family:Roboto;-inkscape-font-specification:'Roboto, Normal';font-variant-ligatures:normal;font-variant-caps:normal;font-variant-numeric:normal;font-feature-settings:normal;text-align:start;letter-spacing:0px;word-spacing:0px;writing-mode:lr-tb;text-anchor:start;fill:url(#linearGradient7737);fill-opacity:1;stroke:none;stroke-width:0.29404819"
       id="text7701">
      <path
         d="m -375.91121,87.618142 q 0,-1.343893 -0.8787,-2.050297 -0.8787,-0.723635 -3.18744,-1.533416 -4.66916,-1.516186 -6.94344,-3.221895 -2.25705,-1.722938 -2.25705,-4.944834 0,-3.152977 2.6361,-5.099898 2.63609,-1.94692 6.70223,-1.94692 4.29011,0 6.90898,2.015838 2.61887,1.998609 2.53272,5.651238 l -0.0345,0.103377 h -5.65124 q 0,-1.774627 -0.96484,-2.567179 -0.96485,-0.809781 -2.91177,-0.809781 -1.5851,0 -2.49826,0.775322 -0.91316,0.775323 -0.91316,1.912462 0,1.102681 0.93039,1.774627 0.94762,0.654717 3.51479,1.654021 4.35904,1.292204 6.59886,3.152978 2.23982,1.860773 2.23982,5.099898 0,3.308042 -2.58441,5.186045 -2.58441,1.860773 -6.85729,1.860773 -4.25566,0 -7.21912,-1.998608 -2.94622,-2.015838 -2.86007,-6.323185 l 0.0344,-0.103376 h 5.66847 q 0,2.188132 1.06822,3.118519 1.08546,0.913157 3.30805,0.913157 1.82631,0 2.72224,-0.723634 0.89593,-0.723634 0.89593,-1.895232 z"
         style="font-style:normal;font-variant:normal;font-weight:normal;font-stretch:normal;font-size:35.28578186px;font-family:Roboto;-inkscape-font-specification:'Roboto, Normal';font-variant-ligatures:normal;font-variant-caps:normal;font-variant-numeric:normal;font-feature-settings:normal;text-align:start;writing-mode:lr-tb;text-anchor:start;fill:url(#linearGradient8029);fill-opacity:1;stroke-width:0.29404819"
         id="path7739"
         inkscape:connector-curvature="0" />
      <path
         d="m -360.59429,70.991784 v 4.634705 h 2.94623 v 4.031676 h -2.94623 v 8.545776 q 0,0.999304 0.39628,1.447268 0.4135,0.430735 1.10268,0.430735 0.44796,0 0.7064,-0.03446 0.27567,-0.03446 0.68918,-0.137835 l 0.39627,4.307346 q -0.87869,0.223982 -1.5851,0.310129 -0.7064,0.103376 -1.67125,0.103376 -2.87731,0 -4.37626,-1.533415 -1.48173,-1.533415 -1.48173,-4.858687 v -8.580234 h -2.60164 v -4.031676 h 2.60164 v -4.634705 z"
         style="font-style:normal;font-variant:normal;font-weight:normal;font-stretch:normal;font-size:35.28578186px;font-family:Roboto;-inkscape-font-specification:'Roboto, Normal';font-variant-ligatures:normal;font-variant-caps:normal;font-variant-numeric:normal;font-feature-settings:normal;text-align:start;writing-mode:lr-tb;text-anchor:start;fill:url(#linearGradient8031);fill-opacity:1;stroke-width:0.29404819"
         id="path7741"
         inkscape:connector-curvature="0" />
      <path
         d="m -355.58054,84.775293 q 0,-4.20397 2.37766,-6.840066 2.37765,-2.653326 6.63331,-2.653326 4.27289,0 6.65054,2.653326 2.37766,2.636096 2.37766,6.840066 v 0.361817 q 0,4.221199 -2.37766,6.857295 -2.37765,2.636096 -6.61608,2.636096 -4.29012,0 -6.66777,-2.636096 -2.37766,-2.636096 -2.37766,-6.857295 z m 5.82353,0.361817 q 0,2.343196 0.72364,3.687089 0.74086,1.326662 2.49826,1.326662 1.70571,0 2.44657,-1.343892 0.74087,-1.343892 0.74087,-3.669859 v -0.361817 q 0,-2.274279 -0.74087,-3.6354 -0.74086,-1.378351 -2.48103,-1.378351 -1.72294,0 -2.4638,1.378351 -0.72364,1.37835 -0.72364,3.6354 z"
         style="font-style:normal;font-variant:normal;font-weight:normal;font-stretch:normal;font-size:35.28578186px;font-family:Roboto;-inkscape-font-specification:'Roboto, Normal';font-variant-ligatures:normal;font-variant-caps:normal;font-variant-numeric:normal;font-feature-settings:normal;text-align:start;writing-mode:lr-tb;text-anchor:start;fill:url(#linearGradient8033);fill-opacity:1;stroke-width:0.29404819"
         id="path7743"
         inkscape:connector-curvature="0" />
      <path
         d="m -328.08244,86.860049 h -1.05099 v 7.408635 h -5.82353 V 67.390843 h 5.82353 v 15.075712 h 0.82701 l 3.9283,-6.840066 h 6.66777 l -5.73738,8.40794 6.685,10.234255 h -6.63332 z"
         style="font-style:normal;font-variant:normal;font-weight:normal;font-stretch:normal;font-size:35.28578186px;font-family:Roboto;-inkscape-font-specification:'Roboto, Normal';font-variant-ligatures:normal;font-variant-caps:normal;font-variant-numeric:normal;font-feature-settings:normal;text-align:start;writing-mode:lr-tb;text-anchor:start;fill:url(#linearGradient8035);fill-opacity:1;stroke-width:0.29404819"
         id="path7745"
         inkscape:connector-curvature="0" />
      <path
         d="m -308.44094,86.050267 0.0172,0.137836 h 0.10338 l 3.08406,-10.561614 h 6.20258 l -7.42587,21.416126 q -0.86147,2.067527 -2.22259,3.411415 -1.36112,1.3439 -4.32458,1.3439 -0.75809,0 -1.24051,-0.10338 -0.48242,-0.0862 -1.51619,-0.34459 l 0.70641,-4.15228 q 0.24121,0.05169 0.36181,0.06892 0.12061,0.03446 0.31013,0.03446 1.37835,0 2.01584,-0.413505 0.63749,-0.396276 0.94762,-1.206057 l 0.46519,-1.206057 -6.44379,-18.848948 h 6.18535 z"
         style="font-style:normal;font-variant:normal;font-weight:normal;font-stretch:normal;font-size:35.28578186px;font-family:Roboto;-inkscape-font-specification:'Roboto, Normal';font-variant-ligatures:normal;font-variant-caps:normal;font-variant-numeric:normal;font-feature-settings:normal;text-align:start;writing-mode:lr-tb;text-anchor:start;fill:url(#linearGradient8037);fill-opacity:1;stroke-width:0.29404819"
         id="path7747"
         inkscape:connector-curvature="0" />
    </g>
    <g
       aria-label="Distribuidora"
       transform="matrix(0.82635886,0,0,0.82635886,352.94248,208.89561)"
       style="font-style:normal;font-variant:normal;font-weight:bold;font-stretch:normal;font-size:8.77348137px;line-height:1.25;font-family:sans-serif;-inkscape-font-specification:'sans-serif, Bold';font-variant-ligatures:normal;font-variant-caps:normal;font-variant-numeric:normal;font-feature-settings:normal;text-align:start;letter-spacing:0px;word-spacing:0px;writing-mode:lr-tb;text-anchor:start;fill:#333333;fill-opacity:1;stroke:none;stroke-width:0.26320443"
       id="text7705">
      <path
         d="m -382.34985,98.400723 v 3.902657 h 0.59119 q 1.011,0 1.54221,-0.50122 0.53549,-0.50122 0.53549,-1.45653 0,-0.951036 -0.53121,-1.447971 -0.5312,-0.496936 -1.54649,-0.496936 z m -1.64931,-1.246622 h 1.73928 q 1.45653,0 2.16766,0.209912 0.71542,0.205629 1.22521,0.702564 0.44981,0.432677 0.66829,0.998155 0.21848,0.565478 0.21848,1.280898 0,0.72398 -0.21848,1.29374 -0.21848,0.56548 -0.66829,0.99816 -0.51407,0.49693 -1.23377,0.70684 -0.7197,0.20563 -2.1591,0.20563 h -1.73928 z"
         style="font-style:normal;font-variant:normal;font-weight:bold;font-stretch:normal;font-size:8.77348137px;font-family:sans-serif;-inkscape-font-specification:'sans-serif, Bold';font-variant-ligatures:normal;font-variant-caps:normal;font-variant-numeric:normal;font-feature-settings:normal;text-align:start;writing-mode:lr-tb;text-anchor:start;fill:#333333;stroke-width:0.26320443"
         id="path7750"
         inkscape:connector-curvature="0" />
      <path
         d="m -376.78502,98.752005 h 1.53364 V 103.55 h -1.53364 z m 0,-1.867792 h 1.53364 v 1.250907 h -1.53364 z"
         style="font-style:normal;font-variant:normal;font-weight:bold;font-stretch:normal;font-size:8.77348137px;font-family:sans-serif;-inkscape-font-specification:'sans-serif, Bold';font-variant-ligatures:normal;font-variant-caps:normal;font-variant-numeric:normal;font-feature-settings:normal;text-align:start;writing-mode:lr-tb;text-anchor:start;fill:#333333;stroke-width:0.26320443"
         id="path7752"
         inkscape:connector-curvature="0" />
      <path
         d="m -370.0207,98.901943 v 1.165227 q -0.49266,-0.205628 -0.95104,-0.308442 -0.45838,-0.102814 -0.86535,-0.102814 -0.43696,0 -0.65116,0.111382 -0.20991,0.107098 -0.20991,0.334144 0,0.18421 0.15851,0.28274 0.16279,0.0985 0.57833,0.14565 l 0.26988,0.0386 q 1.17808,0.14994 1.58506,0.49265 0.40697,0.34272 0.40697,1.07527 0,0.76682 -0.56548,1.15237 -0.56548,0.38556 -1.68787,0.38556 -0.47551,0 -0.9853,-0.0771 -0.5055,-0.0728 -1.04099,-0.22277 v -1.16523 q 0.45838,0.22277 0.93818,0.33415 0.48408,0.11138 0.98102,0.11138 0.44981,0 0.67686,-0.12423 0.22704,-0.12424 0.22704,-0.36842 0,-0.20563 -0.1585,-0.30416 -0.15422,-0.10281 -0.62117,-0.1585 l -0.26989,-0.0343 q -1.02386,-0.12852 -1.43511,-0.47552 -0.41126,-0.347 -0.41126,-1.05385 0,-0.762535 0.52264,-1.130953 0.52264,-0.368418 1.60219,-0.368418 0.42411,0 0.89105,0.06426 0.46695,0.06426 1.0153,0.201345 z"
         style="font-style:normal;font-variant:normal;font-weight:bold;font-stretch:normal;font-size:8.77348137px;font-family:sans-serif;-inkscape-font-specification:'sans-serif, Bold';font-variant-ligatures:normal;font-variant-caps:normal;font-variant-numeric:normal;font-feature-settings:normal;text-align:start;writing-mode:lr-tb;text-anchor:start;fill:#333333;stroke-width:0.26320443"
         id="path7754"
         inkscape:connector-curvature="0" />
      <path
         d="m -366.86774,97.389717 v 1.362288 h 1.58077 v 1.096686 h -1.58077 v 2.034869 q 0,0.33414 0.13281,0.45409 0.1328,0.11567 0.52692,0.11567 h 0.78824 V 103.55 h -1.31516 q -0.9082,0 -1.28947,-0.37698 -0.37698,-0.38127 -0.37698,-1.28946 v -2.034869 h -0.76254 v -1.096686 h 0.76254 v -1.362288 z"
         style="font-style:normal;font-variant:normal;font-weight:bold;font-stretch:normal;font-size:8.77348137px;font-family:sans-serif;-inkscape-font-specification:'sans-serif, Bold';font-variant-ligatures:normal;font-variant-caps:normal;font-variant-numeric:normal;font-feature-settings:normal;text-align:start;writing-mode:lr-tb;text-anchor:start;fill:#333333;stroke-width:0.26320443"
         id="path7756"
         inkscape:connector-curvature="0" />
      <path
         d="m -360.78027,100.0586 q -0.20135,-0.09424 -0.40269,-0.137083 -0.19706,-0.04712 -0.39841,-0.04712 -0.59118,0 -0.91248,0.381263 -0.31701,0.37699 -0.31701,1.08384 v 2.2105 h -1.53364 v -4.797992 h 1.53364 v 0.788243 q 0.29559,-0.471232 0.67686,-0.685428 0.38556,-0.218481 0.92105,-0.218481 0.0771,0 0.16707,0.0086 0.09,0.0043 0.26132,0.0257 z"
         style="font-style:normal;font-variant:normal;font-weight:bold;font-stretch:normal;font-size:8.77348137px;font-family:sans-serif;-inkscape-font-specification:'sans-serif, Bold';font-variant-ligatures:normal;font-variant-caps:normal;font-variant-numeric:normal;font-feature-settings:normal;text-align:start;writing-mode:lr-tb;text-anchor:start;fill:#333333;stroke-width:0.26320443"
         id="path7758"
         inkscape:connector-curvature="0" />
      <path
         d="m -360.00917,98.752005 h 1.53365 V 103.55 h -1.53365 z m 0,-1.867792 h 1.53365 v 1.250907 h -1.53365 z"
         style="font-style:normal;font-variant:normal;font-weight:bold;font-stretch:normal;font-size:8.77348137px;font-family:sans-serif;-inkscape-font-specification:'sans-serif, Bold';font-variant-ligatures:normal;font-variant-caps:normal;font-variant-numeric:normal;font-feature-settings:normal;text-align:start;writing-mode:lr-tb;text-anchor:start;fill:#333333;stroke-width:0.26320443"
         id="path7760"
         inkscape:connector-curvature="0" />
      <path
         d="m -354.44006,102.56042 q 0.49265,0 0.74968,-0.35985 0.26132,-0.35985 0.26132,-1.04528 0,-0.68543 -0.26132,-1.04528 -0.25703,-0.35985 -0.74968,-0.35985 -0.49266,0 -0.75826,0.36413 -0.26132,0.35985 -0.26132,1.041 0,0.68114 0.26132,1.04528 0.2656,0.35985 0.75826,0.35985 z m -1.01958,-3.105851 q 0.31701,-0.419824 0.70257,-0.616885 0.38555,-0.201345 0.88677,-0.201345 0.88677,0 1.45653,0.706848 0.56977,0.702563 0.56977,1.812103 0,1.10954 -0.56977,1.81638 -0.56976,0.70257 -1.45653,0.70257 -0.50122,0 -0.88677,-0.19706 -0.38556,-0.20135 -0.70257,-0.62117 V 103.55 h -1.53364 v -6.665787 h 1.53364 z"
         style="font-style:normal;font-variant:normal;font-weight:bold;font-stretch:normal;font-size:8.77348137px;font-family:sans-serif;-inkscape-font-specification:'sans-serif, Bold';font-variant-ligatures:normal;font-variant-caps:normal;font-variant-numeric:normal;font-feature-settings:normal;text-align:start;writing-mode:lr-tb;text-anchor:start;fill:#333333;stroke-width:0.26320443"
         id="path7762"
         inkscape:connector-curvature="0" />
      <path
         d="m -350.75589,101.68221 v -2.930205 h 1.54222 v 0.4798 q 0,0.389837 -0.004,0.981015 -0.004,0.5869 -0.004,0.78396 0,0.57833 0.03,0.83537 0.03,0.25275 0.10281,0.36842 0.0943,0.14993 0.24418,0.23133 0.15423,0.0814 0.35129,0.0814 0.4798,0 0.75397,-0.36841 0.27417,-0.36842 0.27417,-1.02386 v -2.369015 h 1.53364 V 103.55 h -1.53364 v -0.69399 q -0.347,0.41982 -0.73684,0.62117 -0.38555,0.19706 -0.8525,0.19706 -0.83108,0 -1.26804,-0.50979 -0.43268,-0.50979 -0.43268,-1.48224 z"
         style="font-style:normal;font-variant:normal;font-weight:bold;font-stretch:normal;font-size:8.77348137px;font-family:sans-serif;-inkscape-font-specification:'sans-serif, Bold';font-variant-ligatures:normal;font-variant-caps:normal;font-variant-numeric:normal;font-feature-settings:normal;text-align:start;writing-mode:lr-tb;text-anchor:start;fill:#333333;stroke-width:0.26320443"
         id="path7764"
         inkscape:connector-curvature="0" />
      <path
         d="m -344.44995,98.752005 h 1.53365 V 103.55 h -1.53365 z m 0,-1.867792 h 1.53365 v 1.250907 h -1.53365 z"
         style="font-style:normal;font-variant:normal;font-weight:bold;font-stretch:normal;font-size:8.77348137px;font-family:sans-serif;-inkscape-font-specification:'sans-serif, Bold';font-variant-ligatures:normal;font-variant-caps:normal;font-variant-numeric:normal;font-feature-settings:normal;text-align:start;writing-mode:lr-tb;text-anchor:start;fill:#333333;stroke-width:0.26320443"
         id="path7766"
         inkscape:connector-curvature="0" />
      <path
         d="m -338.16971,99.454569 v -2.570356 h 1.54221 V 103.55 h -1.54221 v -0.69399 q -0.31701,0.42411 -0.69828,0.62117 -0.38127,0.19706 -0.88249,0.19706 -0.88677,0 -1.45653,-0.70257 -0.56977,-0.70684 -0.56977,-1.81638 0,-1.10954 0.56977,-1.812103 0.56976,-0.706848 1.45653,-0.706848 0.49694,0 0.8782,0.201345 0.38556,0.197061 0.70257,0.616885 z m -1.01101,3.105851 q 0.49265,0 0.74969,-0.35985 0.26132,-0.35985 0.26132,-1.04528 0,-0.68543 -0.26132,-1.04528 -0.25704,-0.35985 -0.74969,-0.35985 -0.48837,0 -0.74968,0.35985 -0.25704,0.35985 -0.25704,1.04528 0,0.68543 0.25704,1.04528 0.26131,0.35985 0.74968,0.35985 z"
         style="font-style:normal;font-variant:normal;font-weight:bold;font-stretch:normal;font-size:8.77348137px;font-family:sans-serif;-inkscape-font-specification:'sans-serif, Bold';font-variant-ligatures:normal;font-variant-caps:normal;font-variant-numeric:normal;font-feature-settings:normal;text-align:start;writing-mode:lr-tb;text-anchor:start;fill:#333333;stroke-width:0.26320443"
         id="path7768"
         inkscape:connector-curvature="0" />
      <path
         d="m -332.86193,99.733025 q -0.50978,0 -0.77967,0.368415 -0.26561,0.36414 -0.26561,1.05385 0,0.68971 0.26561,1.05813 0.26989,0.36413 0.77967,0.36413 0.50122,0 0.76683,-0.36413 0.2656,-0.36842 0.2656,-1.05813 0,-0.68971 -0.2656,-1.05385 -0.26561,-0.368415 -0.76683,-0.368415 z m 0,-1.096686 q 1.23806,0 1.93205,0.668293 0.69828,0.668292 0.69828,1.850658 0,1.18236 -0.69828,1.85065 -0.69399,0.6683 -1.93205,0.6683 -1.24234,0 -1.9449,-0.6683 -0.69828,-0.66829 -0.69828,-1.85065 0,-1.182366 0.69828,-1.850658 0.70256,-0.668293 1.9449,-0.668293 z"
         style="font-style:normal;font-variant:normal;font-weight:bold;font-stretch:normal;font-size:8.77348137px;font-family:sans-serif;-inkscape-font-specification:'sans-serif, Bold';font-variant-ligatures:normal;font-variant-caps:normal;font-variant-numeric:normal;font-feature-settings:normal;text-align:start;writing-mode:lr-tb;text-anchor:start;fill:#333333;stroke-width:0.26320443"
         id="path7770"
         inkscape:connector-curvature="0" />
      <path
         d="m -325.54926,100.0586 q -0.20135,-0.09424 -0.40269,-0.137083 -0.19706,-0.04712 -0.39841,-0.04712 -0.59118,0 -0.91247,0.381263 -0.31702,0.37699 -0.31702,1.08384 v 2.2105 h -1.53364 v -4.797992 h 1.53364 v 0.788243 q 0.2956,-0.471232 0.67686,-0.685428 0.38556,-0.218481 0.92105,-0.218481 0.0771,0 0.16707,0.0086 0.09,0.0043 0.26132,0.0257 z"
         style="font-style:normal;font-variant:normal;font-weight:bold;font-stretch:normal;font-size:8.77348137px;font-family:sans-serif;-inkscape-font-specification:'sans-serif, Bold';font-variant-ligatures:normal;font-variant-caps:normal;font-variant-numeric:normal;font-feature-settings:normal;text-align:start;writing-mode:lr-tb;text-anchor:start;fill:#333333;stroke-width:0.26320443"
         id="path7772"
         inkscape:connector-curvature="0" />
      <path
         d="m -322.62763,101.3909 q -0.4798,0 -0.72398,0.16279 -0.2399,0.16279 -0.2399,0.4798 0,0.29131 0.19278,0.45838 0.19706,0.16279 0.54406,0.16279 0.43267,0 0.72826,-0.30844 0.29559,-0.31273 0.29559,-0.77967 v -0.17565 z m 2.34331,-0.57833 V 103.55 h -1.5465 v -0.71113 q -0.30844,0.43696 -0.69399,0.63831 -0.38555,0.19706 -0.93818,0.19706 -0.7454,0 -1.21235,-0.43268 -0.46267,-0.43696 -0.46267,-1.13096 0,-0.84393 0.57833,-1.23805 0.58262,-0.39412 1.82496,-0.39412 h 0.9039 v -0.11995 q 0,-0.364136 -0.28702,-0.531209 -0.28702,-0.171357 -0.89534,-0.171357 -0.49265,0 -0.91676,0.09853 -0.42411,0.09853 -0.78824,0.295596 v -1.169517 q 0.49265,-0.11995 0.98959,-0.179925 0.49693,-0.06426 0.99387,-0.06426 1.29803,0 1.87207,0.514072 0.57833,0.509787 0.57833,1.66216 z"
         style="font-style:normal;font-variant:normal;font-weight:bold;font-stretch:normal;font-size:8.77348137px;font-family:sans-serif;-inkscape-font-specification:'sans-serif, Bold';font-variant-ligatures:normal;font-variant-caps:normal;font-variant-numeric:normal;font-feature-settings:normal;text-align:start;writing-mode:lr-tb;text-anchor:start;fill:#333333;stroke-width:0.26320443"
         id="path7774"
         inkscape:connector-curvature="0" />
    </g>
    <g
       id="g8139">
      <rect
         ry="1.8727711"
         rx="2.2179215"
         y="265.61948"
         x="1.6088572e-05"
         height="28.890486"
         width="28.117258"
         id="rect7707"
         style="fill:#008000;fill-opacity:0.94117647;stroke:none;stroke-width:1.08951247;stroke-miterlimit:4;stroke-dasharray:none;stroke-opacity:0.94509804" />
      <path
         id="path7709"
         d="m 13.662761,291.50039 10.421005,-2.27547 c 0.329783,-0.0659 0.560627,-0.42872 0.494667,-0.75849 l -2.17653,-9.86038 c -0.06594,-0.32978 -0.428715,-0.56063 -0.758499,-0.49468 l -10.420996,2.27548 c -0.329784,0.066 -0.560627,0.42872 -0.494675,0.75849 l 2.176538,9.86038 c 0.06594,0.36276 0.395743,0.56063 0.75849,0.49467 z"
         style="fill:#ffffff;stroke-width:0.08244465"
         inkscape:connector-curvature="0" />
      <path
         id="path7711"
         d="m 12.013869,293.77168 13.290082,-2.90206 c 0.296803,-0.0659 0.494667,-0.36276 0.428707,-0.65955 -0.06594,-0.2968 -0.362747,-0.49467 -0.65955,-0.42872 L 12.343653,292.58448 7.924616,272.50096 C 7.891644,272.36905 7.7927043,272.23713 7.6937727,272.17118 L 1.395001,268.14787 c -0.2638233,-0.16488 -0.59359837,-0.0989 -0.75849001,0.1649 -0.16489165,0.26382 -0.0989317,0.5936 0.16489164,0.75849 l 6.10090007,3.89139 4.4849883,20.38032 c 0.06594,0.2968 0.329783,0.49466 0.626578,0.42871 z"
         style="fill:#e6e9ee;stroke-width:0.08244465"
         inkscape:connector-curvature="0" />
      <circle
         transform="scale(-1,1)"
         id="circle7713"
         r="3.6605427"
         cy="293.21106"
         cx="-11.914937"
         style="fill:#00a718;fill-opacity:0.96078431;stroke-width:0.08244465" />
      <circle
         transform="scale(-1,1)"
         id="circle7715"
         r="2.5392954"
         cy="293.24402"
         cx="-11.914937"
         style="fill:#008f22;fill-opacity:0.94117647;stroke-width:0.08244465" />
      <circle
         transform="scale(-1,1)"
         id="circle7717"
         r="2.1765389"
         cy="293.24402"
         cx="-11.914937"
         style="fill:#ffffff;stroke-width:0.08244465" />
      <g
         transform="matrix(-0.08244466,0,0,0.08244466,34.076064,260.56297)"
         id="g7729">
        <path
           id="path7719"
           d="m 279.6,384.8 c -0.8,3.2 -3.6,0 -8,-0.8 -4.4,-0.8 -8.4,0.4 -7.6,-2.8 0.8,-3.2 4.8,-4.8 9.2,-4 4,1.2 7.2,4.8 6.4,7.6 z"
           style="fill:#e6e9ee"
           inkscape:connector-curvature="0" />
        <path
           id="path7721"
           d="m 258,407.6 c 0.8,-3.2 3.6,0 8,0.8 4.4,0.8 8.4,-0.4 7.6,2.8 -0.8,3.2 -4.8,4.8 -9.2,4 -4,-1.2 -6.8,-4.4 -6.4,-7.6 z"
           style="fill:#e6e9ee"
           inkscape:connector-curvature="0" />
        <path
           id="path7723"
           d="m 280,406.8 c -3.2,-0.8 0,-3.6 0.8,-8 0.8,-4.4 -0.4,-8.4 2.8,-7.6 3.2,0.8 4.8,4.8 4,9.2 -1.2,4.4 -4.4,7.2 -7.6,6.4 z"
           style="fill:#e6e9ee"
           inkscape:connector-curvature="0" />
        <path
           id="path7725"
           d="m 257.6,385.6 c 3.2,0.8 0,3.6 -0.8,8 -0.8,4.4 0.4,8.4 -2.8,7.6 -3.2,-0.8 -4.8,-4.8 -4,-9.2 1.2,-4 4.4,-7.2 7.6,-6.4 z"
           style="fill:#e6e9ee"
           inkscape:connector-curvature="0" />
        <circle
           id="circle7727"
           r="6.8000002"
           cy="396.39999"
           cx="268.79999"
           style="fill:#e6e9ee" />
      </g>
      <rect
         id="rect7731"
         height="1.7806424"
         width="2.6380279"
         style="fill:#009122;fill-opacity:0.94509804;stroke-width:0.08244096"
         transform="matrix(0.97674385,-0.21440956,-0.21440956,-0.97674385,0,0)"
         y="-278.05844"
         x="-45.137695" />
      <path
         id="path7733"
         d="m 11.057516,280.25599 7.947663,-1.74783 c 0.263824,-0.0659 0.428715,-0.32978 0.362755,-0.5936 l -1.648891,-7.51895 c -0.06594,-0.26383 -0.329775,-0.42871 -0.593599,-0.36276 l -7.947663,1.74783 c -0.2638234,0.0659 -0.428715,0.32978 -0.3627633,0.5936 l 1.6818713,7.48598 c 0.03297,0.26382 0.296804,0.42871 0.560627,0.39573 z"
         style="fill:#ffffff;stroke-width:0.08244465"
         inkscape:connector-curvature="0" />
      <rect
         id="rect7735"
         height="1.3519492"
         width="2.0114768"
         style="fill:#009022;fill-opacity:0.94117647;stroke-width:0.08244096"
         transform="matrix(0.97674385,-0.21440956,-0.21440956,-0.97674385,0,0)"
         y="-268.75195"
         x="-46.189735" />
    </g>
  </g>
</svg>
